<svg width="56" height="56" viewBox="0 0 56 56" fill="none" xmlns="http://www.w3.org/2000/svg">
<path d="M38.0404 17.6354C37.7848 17.3777 37.4806 17.1731 37.1455 17.0335C36.8104 16.8939 36.451 16.822 36.0879 16.822C35.7249 16.822 35.3655 16.8939 35.0303 17.0335C34.6952 17.1731 34.3911 17.3777 34.1354 17.6354L27.8379 23.9604L21.5404 17.6354C21.0226 17.1176 20.3203 16.8267 19.5879 16.8267C18.8556 16.8267 18.1533 17.1176 17.6354 17.6354C17.1176 18.1533 16.8267 18.8556 16.8267 19.5879C16.8267 20.3203 17.1176 21.0226 17.6354 21.5404L23.9604 27.8379L17.6354 34.1354C17.3777 34.3911 17.1731 34.6952 17.0335 35.0303C16.8939 35.3655 16.822 35.7249 16.822 36.0879C16.822 36.451 16.8939 36.8104 17.0335 37.1455C17.1731 37.4806 17.3777 37.7848 17.6354 38.0404C17.8911 38.2982 18.1952 38.5028 18.5303 38.6424C18.8655 38.782 19.2249 38.8539 19.5879 38.8539C19.951 38.8539 20.3104 38.782 20.6455 38.6424C20.9806 38.5028 21.2848 38.2982 21.5404 38.0404L27.8379 31.7154L34.1354 38.0404C34.3911 38.2982 34.6952 38.5028 35.0303 38.6424C35.3655 38.782 35.7249 38.8539 36.0879 38.8539C36.451 38.8539 36.8104 38.782 37.1455 38.6424C37.4806 38.5028 37.7848 38.2982 38.0404 38.0404C38.2982 37.7848 38.5028 37.4806 38.6424 37.1455C38.782 36.8104 38.8539 36.451 38.8539 36.0879C38.8539 35.7249 38.782 35.3655 38.6424 35.0303C38.5028 34.6952 38.2982 34.3911 38.0404 34.1354L31.7154 27.8379L38.0404 21.5404C38.2982 21.2848 38.5028 20.9806 38.6424 20.6455C38.782 20.3104 38.8539 19.951 38.8539 19.5879C38.8539 19.2249 38.782 18.8655 38.6424 18.5303C38.5028 18.1952 38.2982 17.8911 38.0404 17.6354ZM47.2804 8.39543C44.7436 5.76889 41.7092 3.67388 38.354 2.23264C34.9989 0.79139 31.3904 0.0327683 27.739 0.00103831C24.0875 -0.0306916 20.4663 0.665105 17.0867 2.04783C13.707 3.43055 10.6366 5.47252 8.05456 8.05456C5.47252 10.6366 3.43055 13.707 2.04783 17.0867C0.665105 20.4663 -0.0306916 24.0875 0.00103831 27.739C0.0327683 31.3904 0.79139 34.9989 2.23264 38.354C3.67388 41.7092 5.76889 44.7436 8.39543 47.2804C10.9322 49.907 13.9667 52.002 17.3218 53.4432C20.6769 54.8845 24.2855 55.6431 27.9369 55.6748C31.5883 55.7065 35.2095 55.0107 38.5892 53.628C41.9688 52.2453 45.0392 50.2033 47.6213 47.6213C50.2033 45.0392 52.2453 41.9688 53.628 38.5892C55.0107 35.2095 55.7065 31.5883 55.6748 27.9369C55.6431 24.2855 54.8845 20.6769 53.4432 17.3218C52.002 13.9667 49.907 10.9322 47.2804 8.39543ZM43.4029 43.4029C39.806 47.0038 35.0719 49.2462 30.0071 49.748C24.9423 50.2499 19.8602 48.9801 15.6266 46.1551C11.393 43.33 8.26991 39.1245 6.78935 34.255C5.30879 29.3855 5.56239 24.1533 7.50694 19.4498C9.45149 14.7464 12.9667 10.8626 17.4536 8.46022C21.9406 6.05786 27.1217 5.28553 32.1142 6.27483C37.1067 7.26412 41.6018 9.95383 44.8336 13.8857C48.0654 17.8176 49.8339 22.7483 49.8379 27.8379C49.8477 30.729 49.284 33.5932 48.1795 36.265C47.0749 38.9367 45.4514 41.3628 43.4029 43.4029Z" fill="#080043"/>
</svg>
